<?xml version="1.0" standalone="no"?>
<!DOCTYPE svg PUBLIC "-//W3C//DTD SVG 20010904//EN"
 "http://www.w3.org/TR/2001/REC-SVG-20010904/DTD/svg10.dtd">
<svg version="1.0" xmlns="http://www.w3.org/2000/svg"
 width="100.000000pt" height="100.000000pt" viewBox="0 0 100.000000 100.000000"
 preserveAspectRatio="xMidYMid meet">
<metadata>
Created by potrace 1.11, written by Peter Selinger 2001-2013
</metadata>
<g transform="translate(0.000000,100.000000) scale(0.100000,-0.100000)"
fill="#000000" stroke="none">
<path d="M120 930 c0 -59 24 -90 70 -90 l30 0 0 -85 c0 -122 20 -159 123 -227
l38 -25 -51 -33 c-28 -18 -63 -49 -78 -68 -24 -32 -27 -45 -30 -134 -3 -83 -6
-98 -20 -99 -64 -3 -82 -23 -82 -91 l0 -48 53 0 c207 -2 690 0 693 2 1 2 5 23
7 47 4 37 0 49 -19 68 -13 13 -35 23 -51 23 l-28 0 -1 88 c-1 59 -7 98 -17
118 -18 34 -77 90 -113 106 -13 6 -24 15 -24 20 0 4 24 24 53 43 78 52 100 96
101 206 l1 89 26 0 c52 0 73 34 70 113 l-1 27 -375 0 -375 0 0 -50z m713 -10
c3 -10 -1 -24 -8 -30 -8 -7 -121 -9 -336 -8 l-324 3 -3 28 -3 27 334 0 c324 0
335 -1 340 -20z m-99 -164 c-3 -106 -18 -134 -91 -182 -115 -75 -113 -64 -24
-124 43 -29 86 -66 96 -82 17 -30 28 -167 14 -189 -4 -7 -88 -11 -235 -12
l-229 -1 -5 49 c-7 68 5 143 27 167 9 11 47 40 83 65 36 25 69 49 73 53 4 4
-28 30 -72 59 -98 64 -111 88 -111 200 l0 81 238 0 238 0 -2 -84z m92 -638 c6
-4 9 -18 7 -30 l-4 -23 -335 3 -334 3 0 23 c0 12 2 25 5 27 7 8 649 5 661 -3z"/>
<path d="M348 742 c-20 -2 -28 -9 -28 -22 0 -50 47 -117 102 -146 66 -34 74
-34 135 -4 63 32 100 76 113 134 7 34 7 36 -19 37 -156 3 -281 3 -303 1z"/>
</g>
</svg>
